<svg width="1287" height="288" viewBox="0 0 1287 288" fill="none" xmlns="http://www.w3.org/2000/svg">
<path d="M37.9141 59.5322C65.5283 11.703 126.687 -4.68438 174.517 22.9297L216.952 47.4297C264.781 75.0439 281.169 136.203 253.555 184.032L229.055 226.468C201.44 274.297 140.281 290.684 92.4521 263.07L50.0166 238.57C2.18752 210.956 -14.1999 149.797 13.4141 101.968L37.9141 59.5322ZM132.265 40.5713C92.0352 40.5713 59.4229 65.7873 59.4229 96.8926C59.4229 112.328 65.5647 125.492 78.5723 135.665C80.012 136.791 87.1258 141.2 92.8223 143.213L145.133 158.8C152.099 161.368 155.764 169.051 153.331 176.103C150.902 183.14 143.306 186.92 136.251 184.674C129.196 182.428 103.376 159.07 92.8223 155.428C82.2686 151.786 71.1401 153.589 64.249 158.806C56.2391 164.869 53.4151 174.417 53.415 183.251C53.415 217.259 89.0535 244.829 133.016 244.829C176.978 244.829 213.415 217.472 213.415 183.464C213.415 164.963 205.56 149.469 188.863 138.182C186.742 136.748 183.729 134.659 174.271 131.137L120.418 114.459C113.275 111.994 109.482 104.204 111.946 97.0605C114.412 89.9177 122.202 86.1245 129.345 88.5889C136.488 91.0538 164.076 114.704 174.271 117.553C184.467 120.402 194.283 117.552 200.836 110.508C207.388 103.464 208.887 95.9167 206.874 87.3633C202.457 68.5902 172.494 40.5714 132.265 40.5713Z" fill="#19191B"/>
<path d="M363.295 241.102C336.812 241.102 313.908 230.604 299.355 205.076L328.223 186.705C336.812 203.883 350.65 211.279 365.203 211.279C380.711 211.279 390.255 203.644 390.255 192.192C390.255 175.491 372.6 170.242 352.081 164.994C326.314 158.313 309.852 143.283 309.852 117.993C309.852 87.9314 333.472 68.129 368.782 68.129C394.788 68.129 411.489 79.5809 423.895 99.1447L395.265 116.8C387.153 103.916 379.518 97.9518 367.112 97.9518C353.751 97.9518 343.97 105.109 343.97 116.323C343.97 128.729 355.899 132.785 370.452 137.318C390.016 143.521 424.372 152.11 424.372 190.283C424.372 220.583 401.229 241.102 363.295 241.102ZM497.088 241.102C461.539 241.102 433.147 211.994 433.147 175.968C433.147 139.942 460.823 111.074 498.758 110.835C521.423 110.597 539.794 119.424 550.292 133.978L525.479 154.257C519.753 145.668 510.21 140.181 499.235 140.181C478.717 140.181 465.356 156.643 465.356 175.968C465.356 195.294 479.432 211.756 499.951 211.756C512.357 211.756 520.469 205.553 526.91 196.964L550.292 217.243C538.601 232.274 521.423 241.102 497.088 241.102ZM563.035 238V63.8345H595.244V131.115C601.924 117.754 614.092 111.074 632.701 111.074C659.423 111.074 679.941 130.876 679.941 162.131V238H647.732V170.004C647.732 148.531 636.996 139.227 621.011 139.227C607.412 139.227 595.244 148.531 595.244 170.004V238H563.035ZM757.344 241.102C718.932 241.102 693.165 211.994 693.165 176.207C693.165 140.42 720.125 110.835 757.344 110.835C794.563 110.835 820.33 140.42 820.33 176.207C820.33 179.786 820.092 183.603 819.376 187.659H726.567C730.146 202.213 741.121 212.472 757.344 212.472C771.182 212.472 781.918 205.314 787.644 195.771L812.695 214.619C802.675 230.127 781.918 241.102 757.344 241.102ZM726.567 163.562H787.883C784.304 149.724 772.614 138.511 756.867 138.511C741.598 138.511 730.146 148.77 726.567 163.562ZM889.383 241.102C855.266 241.102 828.067 212.233 828.067 176.446C828.067 140.658 855.266 111.312 889.383 111.312C910.617 111.312 921.83 119.901 928.511 133.024V63.8345H960.719V238H929.465V217.72C922.785 231.797 911.571 241.102 889.383 241.102ZM860.276 176.207C860.276 195.055 874.114 211.994 894.632 211.994C915.866 211.994 929.465 195.771 929.465 176.446C929.465 157.12 915.866 140.42 894.632 140.42C874.114 140.42 860.276 156.882 860.276 176.207ZM1025.9 240.863C999.182 240.863 978.663 221.061 978.663 189.806V113.937H1010.87V181.933C1010.87 203.405 1019.7 212.71 1035.68 212.71C1049.28 212.71 1061.45 203.405 1061.45 181.933V113.937H1093.66V238H1062.41V219.391C1056.44 233.706 1045.23 240.863 1025.9 240.863ZM1112.66 238V63.8345H1144.87V238H1112.66ZM1176.56 287.864C1170.12 287.864 1161.53 287.387 1155.09 285.478L1159.86 254.701C1164.64 255.894 1169.17 256.371 1174.42 256.371C1186.82 256.371 1194.7 248.498 1198.28 237.523L1199.95 232.274L1150.8 113.937H1189.69L1213.78 184.796C1215.93 190.761 1217.84 198.157 1219.03 204.598C1220.22 198.157 1222.13 190.761 1224.28 184.796L1248.38 113.937H1286.55L1231.68 245.873C1221.18 270.924 1205.67 287.864 1176.56 287.864Z" fill="#19191B"/>
</svg>
